<mxfile host="app.diagrams.net" agent="Mozilla/5.0 (X11; Linux x86_64; rv:138.0) Gecko/20100101 Firefox/138.0" version="27.0.9">
  <diagram name="Page-1" id="0KHDUu_hvplqLUnXLJin">
    <mxGraphModel dx="2316" dy="1306" grid="1" gridSize="10" guides="1" tooltips="1" connect="1" arrows="1" fold="1" page="1" pageScale="1" pageWidth="1100" pageHeight="1700" math="0" shadow="0">
      <root>
        <mxCell id="0" />
        <mxCell id="1" parent="0" />
        <mxCell id="514ld6V3FWJP6KO72t_t-154" value="" style="rounded=0;whiteSpace=wrap;html=1;movable=1;resizable=1;rotatable=1;deletable=1;editable=1;locked=0;connectable=1;" vertex="1" parent="1">
          <mxGeometry x="40" y="40" width="1000" height="740" as="geometry" />
        </mxCell>
        <mxCell id="514ld6V3FWJP6KO72t_t-153" value="" style="rounded=0;whiteSpace=wrap;html=1;fillColor=light-dark(#FFFFFF,#32383D);glass=0;shadow=0;opacity=25;" vertex="1" parent="1">
          <mxGeometry x="70" y="630" width="940" height="120" as="geometry" />
        </mxCell>
        <mxCell id="514ld6V3FWJP6KO72t_t-152" value="" style="rounded=0;whiteSpace=wrap;html=1;fillColor=light-dark(#FFFFFF,#3D313D);glass=0;shadow=0;opacity=25;" vertex="1" parent="1">
          <mxGeometry x="70" y="190" width="940" height="360" as="geometry" />
        </mxCell>
        <mxCell id="514ld6V3FWJP6KO72t_t-7" value="" style="group" vertex="1" connectable="0" parent="1">
          <mxGeometry x="470" y="50" width="160" height="50" as="geometry" />
        </mxCell>
        <mxCell id="514ld6V3FWJP6KO72t_t-1" value="&lt;b&gt;&lt;font style=&quot;font-size: 16px;&quot;&gt;PharmInc&lt;/font&gt;&lt;/b&gt;" style="text;html=1;align=center;verticalAlign=middle;whiteSpace=wrap;rounded=0;" vertex="1" parent="514ld6V3FWJP6KO72t_t-7">
          <mxGeometry width="160" height="30" as="geometry" />
        </mxCell>
        <mxCell id="514ld6V3FWJP6KO72t_t-6" value="&lt;b&gt;Architecture&lt;/b&gt;" style="text;html=1;align=center;verticalAlign=middle;whiteSpace=wrap;rounded=0;" vertex="1" parent="514ld6V3FWJP6KO72t_t-7">
          <mxGeometry y="20" width="160" height="30" as="geometry" />
        </mxCell>
        <mxCell id="514ld6V3FWJP6KO72t_t-150" style="edgeStyle=orthogonalEdgeStyle;rounded=0;orthogonalLoop=1;jettySize=auto;html=1;exitX=0.5;exitY=1;exitDx=0;exitDy=0;entryX=0.5;entryY=0;entryDx=0;entryDy=0;" edge="1" parent="1" source="514ld6V3FWJP6KO72t_t-11" target="514ld6V3FWJP6KO72t_t-86">
          <mxGeometry relative="1" as="geometry">
            <Array as="points">
              <mxPoint x="550" y="180" />
              <mxPoint x="700" y="180" />
            </Array>
          </mxGeometry>
        </mxCell>
        <mxCell id="514ld6V3FWJP6KO72t_t-11" value="" style="group;movable=1;resizable=1;rotatable=1;deletable=1;editable=1;locked=0;connectable=1;" vertex="1" connectable="0" parent="1">
          <mxGeometry x="490" y="130" width="120" height="40" as="geometry" />
        </mxCell>
        <mxCell id="514ld6V3FWJP6KO72t_t-8" value="" style="rounded=1;whiteSpace=wrap;html=1;" vertex="1" parent="514ld6V3FWJP6KO72t_t-11">
          <mxGeometry width="120" height="40" as="geometry" />
        </mxCell>
        <mxCell id="514ld6V3FWJP6KO72t_t-9" value="&lt;b&gt;frontend&lt;/b&gt;" style="text;html=1;align=center;verticalAlign=middle;whiteSpace=wrap;rounded=0;" vertex="1" parent="514ld6V3FWJP6KO72t_t-11">
          <mxGeometry x="20" y="5" width="80" height="30" as="geometry" />
        </mxCell>
        <mxCell id="514ld6V3FWJP6KO72t_t-122" value="" style="group;movable=1;resizable=1;rotatable=1;deletable=1;editable=1;locked=0;connectable=1;" vertex="1" connectable="0" parent="1">
          <mxGeometry x="810" y="200" width="140" height="330" as="geometry" />
        </mxCell>
        <mxCell id="514ld6V3FWJP6KO72t_t-68" value="" style="group;movable=1;resizable=1;rotatable=1;deletable=1;editable=1;locked=0;connectable=1;" vertex="1" connectable="0" parent="514ld6V3FWJP6KO72t_t-122">
          <mxGeometry x="50" y="310" width="90" height="20" as="geometry" />
        </mxCell>
        <mxCell id="514ld6V3FWJP6KO72t_t-69" value="" style="rounded=0;whiteSpace=wrap;html=1;movable=1;resizable=1;rotatable=1;deletable=1;editable=1;locked=0;connectable=1;" vertex="1" parent="514ld6V3FWJP6KO72t_t-68">
          <mxGeometry width="90" height="20" as="geometry" />
        </mxCell>
        <mxCell id="514ld6V3FWJP6KO72t_t-70" value="&lt;font style=&quot;font-size: 10px;&quot;&gt;analytics&lt;/font&gt;" style="text;html=1;align=center;verticalAlign=middle;whiteSpace=wrap;rounded=0;movable=1;resizable=1;rotatable=1;deletable=1;editable=1;locked=0;connectable=1;" vertex="1" parent="514ld6V3FWJP6KO72t_t-68">
          <mxGeometry width="90" height="20" as="geometry" />
        </mxCell>
        <mxCell id="514ld6V3FWJP6KO72t_t-121" value="" style="group" vertex="1" connectable="0" parent="514ld6V3FWJP6KO72t_t-122">
          <mxGeometry width="140" height="300" as="geometry" />
        </mxCell>
        <mxCell id="514ld6V3FWJP6KO72t_t-18" value="" style="group;movable=1;resizable=1;rotatable=1;deletable=1;editable=1;locked=0;connectable=1;" vertex="1" connectable="0" parent="514ld6V3FWJP6KO72t_t-121">
          <mxGeometry width="120" height="30" as="geometry" />
        </mxCell>
        <mxCell id="514ld6V3FWJP6KO72t_t-12" value="" style="rounded=0;whiteSpace=wrap;html=1;movable=1;resizable=1;rotatable=1;deletable=1;editable=1;locked=0;connectable=1;" vertex="1" parent="514ld6V3FWJP6KO72t_t-18">
          <mxGeometry width="120" height="30" as="geometry" />
        </mxCell>
        <mxCell id="514ld6V3FWJP6KO72t_t-15" value="profile" style="text;html=1;align=center;verticalAlign=middle;whiteSpace=wrap;rounded=0;movable=1;resizable=1;rotatable=1;deletable=1;editable=1;locked=0;connectable=1;" vertex="1" parent="514ld6V3FWJP6KO72t_t-18">
          <mxGeometry width="120" height="30" as="geometry" />
        </mxCell>
        <mxCell id="514ld6V3FWJP6KO72t_t-36" value="" style="group;movable=1;resizable=1;rotatable=1;deletable=1;editable=1;locked=0;connectable=1;" vertex="1" connectable="0" parent="514ld6V3FWJP6KO72t_t-121">
          <mxGeometry x="50" y="40" width="90" height="20" as="geometry" />
        </mxCell>
        <mxCell id="514ld6V3FWJP6KO72t_t-37" value="" style="rounded=0;whiteSpace=wrap;html=1;movable=1;resizable=1;rotatable=1;deletable=1;editable=1;locked=0;connectable=1;" vertex="1" parent="514ld6V3FWJP6KO72t_t-36">
          <mxGeometry width="90" height="20" as="geometry" />
        </mxCell>
        <mxCell id="514ld6V3FWJP6KO72t_t-38" value="&lt;font style=&quot;font-size: 10px;&quot;&gt;work place&lt;/font&gt;" style="text;html=1;align=center;verticalAlign=middle;whiteSpace=wrap;rounded=0;movable=1;resizable=1;rotatable=1;deletable=1;editable=1;locked=0;connectable=1;" vertex="1" parent="514ld6V3FWJP6KO72t_t-36">
          <mxGeometry width="90" height="20" as="geometry" />
        </mxCell>
        <mxCell id="514ld6V3FWJP6KO72t_t-43" value="" style="group;movable=1;resizable=1;rotatable=1;deletable=1;editable=1;locked=0;connectable=1;" vertex="1" connectable="0" parent="514ld6V3FWJP6KO72t_t-121">
          <mxGeometry x="50" y="70" width="90" height="20" as="geometry" />
        </mxCell>
        <mxCell id="514ld6V3FWJP6KO72t_t-44" value="" style="rounded=0;whiteSpace=wrap;html=1;movable=1;resizable=1;rotatable=1;deletable=1;editable=1;locked=0;connectable=1;" vertex="1" parent="514ld6V3FWJP6KO72t_t-43">
          <mxGeometry width="90" height="20" as="geometry" />
        </mxCell>
        <mxCell id="514ld6V3FWJP6KO72t_t-45" value="&lt;font style=&quot;font-size: 10px;&quot;&gt;education&lt;/font&gt;" style="text;html=1;align=center;verticalAlign=middle;whiteSpace=wrap;rounded=0;movable=1;resizable=1;rotatable=1;deletable=1;editable=1;locked=0;connectable=1;" vertex="1" parent="514ld6V3FWJP6KO72t_t-43">
          <mxGeometry width="90" height="20" as="geometry" />
        </mxCell>
        <mxCell id="514ld6V3FWJP6KO72t_t-46" value="" style="group;movable=1;resizable=1;rotatable=1;deletable=1;editable=1;locked=0;connectable=1;" vertex="1" connectable="0" parent="514ld6V3FWJP6KO72t_t-121">
          <mxGeometry x="50" y="100" width="90" height="20" as="geometry" />
        </mxCell>
        <mxCell id="514ld6V3FWJP6KO72t_t-47" value="" style="rounded=0;whiteSpace=wrap;html=1;movable=1;resizable=1;rotatable=1;deletable=1;editable=1;locked=0;connectable=1;" vertex="1" parent="514ld6V3FWJP6KO72t_t-46">
          <mxGeometry width="90" height="20" as="geometry" />
        </mxCell>
        <mxCell id="514ld6V3FWJP6KO72t_t-48" value="&lt;font style=&quot;font-size: 10px;&quot;&gt;connections&lt;/font&gt;" style="text;html=1;align=center;verticalAlign=middle;whiteSpace=wrap;rounded=0;movable=1;resizable=1;rotatable=1;deletable=1;editable=1;locked=0;connectable=1;" vertex="1" parent="514ld6V3FWJP6KO72t_t-46">
          <mxGeometry width="90" height="20" as="geometry" />
        </mxCell>
        <mxCell id="514ld6V3FWJP6KO72t_t-49" value="" style="group;movable=1;resizable=1;rotatable=1;deletable=1;editable=1;locked=0;connectable=1;" vertex="1" connectable="0" parent="514ld6V3FWJP6KO72t_t-121">
          <mxGeometry x="50" y="130" width="90" height="20" as="geometry" />
        </mxCell>
        <mxCell id="514ld6V3FWJP6KO72t_t-50" value="" style="rounded=0;whiteSpace=wrap;html=1;movable=1;resizable=1;rotatable=1;deletable=1;editable=1;locked=0;connectable=1;" vertex="1" parent="514ld6V3FWJP6KO72t_t-49">
          <mxGeometry width="90" height="20" as="geometry" />
        </mxCell>
        <mxCell id="514ld6V3FWJP6KO72t_t-51" value="&lt;font style=&quot;font-size: 10px;&quot;&gt;follows&lt;/font&gt;" style="text;html=1;align=center;verticalAlign=middle;whiteSpace=wrap;rounded=0;movable=1;resizable=1;rotatable=1;deletable=1;editable=1;locked=0;connectable=1;" vertex="1" parent="514ld6V3FWJP6KO72t_t-49">
          <mxGeometry width="90" height="20" as="geometry" />
        </mxCell>
        <mxCell id="514ld6V3FWJP6KO72t_t-52" value="" style="group;movable=1;resizable=1;rotatable=1;deletable=1;editable=1;locked=0;connectable=1;" vertex="1" connectable="0" parent="514ld6V3FWJP6KO72t_t-121">
          <mxGeometry x="50" y="160" width="90" height="20" as="geometry" />
        </mxCell>
        <mxCell id="514ld6V3FWJP6KO72t_t-53" value="" style="rounded=0;whiteSpace=wrap;html=1;movable=1;resizable=1;rotatable=1;deletable=1;editable=1;locked=0;connectable=1;" vertex="1" parent="514ld6V3FWJP6KO72t_t-52">
          <mxGeometry width="90" height="20" as="geometry" />
        </mxCell>
        <mxCell id="514ld6V3FWJP6KO72t_t-54" value="&lt;font style=&quot;font-size: 10px;&quot;&gt;tags&lt;/font&gt;" style="text;html=1;align=center;verticalAlign=middle;whiteSpace=wrap;rounded=0;movable=1;resizable=1;rotatable=1;deletable=1;editable=1;locked=0;connectable=1;" vertex="1" parent="514ld6V3FWJP6KO72t_t-52">
          <mxGeometry width="90" height="20" as="geometry" />
        </mxCell>
        <mxCell id="514ld6V3FWJP6KO72t_t-55" value="" style="group;movable=1;resizable=1;rotatable=1;deletable=1;editable=1;locked=0;connectable=1;" vertex="1" connectable="0" parent="514ld6V3FWJP6KO72t_t-121">
          <mxGeometry x="50" y="220" width="90" height="20" as="geometry" />
        </mxCell>
        <mxCell id="514ld6V3FWJP6KO72t_t-56" value="" style="rounded=0;whiteSpace=wrap;html=1;movable=1;resizable=1;rotatable=1;deletable=1;editable=1;locked=0;connectable=1;" vertex="1" parent="514ld6V3FWJP6KO72t_t-55">
          <mxGeometry width="90" height="20" as="geometry" />
        </mxCell>
        <mxCell id="514ld6V3FWJP6KO72t_t-57" value="&lt;font style=&quot;font-size: 10px;&quot;&gt;about&lt;/font&gt;" style="text;html=1;align=center;verticalAlign=middle;whiteSpace=wrap;rounded=0;movable=1;resizable=1;rotatable=1;deletable=1;editable=1;locked=0;connectable=1;" vertex="1" parent="514ld6V3FWJP6KO72t_t-55">
          <mxGeometry width="90" height="20" as="geometry" />
        </mxCell>
        <mxCell id="514ld6V3FWJP6KO72t_t-58" value="" style="group;movable=1;resizable=1;rotatable=1;deletable=1;editable=1;locked=0;connectable=1;" vertex="1" connectable="0" parent="514ld6V3FWJP6KO72t_t-121">
          <mxGeometry x="50" y="250" width="90" height="20" as="geometry" />
        </mxCell>
        <mxCell id="514ld6V3FWJP6KO72t_t-59" value="" style="rounded=0;whiteSpace=wrap;html=1;movable=1;resizable=1;rotatable=1;deletable=1;editable=1;locked=0;connectable=1;" vertex="1" parent="514ld6V3FWJP6KO72t_t-58">
          <mxGeometry width="90" height="20" as="geometry" />
        </mxCell>
        <mxCell id="514ld6V3FWJP6KO72t_t-60" value="&lt;font style=&quot;font-size: 10px;&quot;&gt;activity&lt;/font&gt;" style="text;html=1;align=center;verticalAlign=middle;whiteSpace=wrap;rounded=0;movable=1;resizable=1;rotatable=1;deletable=1;editable=1;locked=0;connectable=1;" vertex="1" parent="514ld6V3FWJP6KO72t_t-58">
          <mxGeometry width="90" height="20" as="geometry" />
        </mxCell>
        <mxCell id="514ld6V3FWJP6KO72t_t-61" value="" style="group;movable=1;resizable=1;rotatable=1;deletable=1;editable=1;locked=0;connectable=1;" vertex="1" connectable="0" parent="514ld6V3FWJP6KO72t_t-121">
          <mxGeometry x="50" y="190" width="90" height="20" as="geometry" />
        </mxCell>
        <mxCell id="514ld6V3FWJP6KO72t_t-62" value="" style="rounded=0;whiteSpace=wrap;html=1;movable=1;resizable=1;rotatable=1;deletable=1;editable=1;locked=0;connectable=1;" vertex="1" parent="514ld6V3FWJP6KO72t_t-61">
          <mxGeometry width="90" height="20" as="geometry" />
        </mxCell>
        <mxCell id="514ld6V3FWJP6KO72t_t-63" value="&lt;font style=&quot;font-size: 10px;&quot;&gt;posts&lt;/font&gt;" style="text;html=1;align=center;verticalAlign=middle;whiteSpace=wrap;rounded=0;movable=1;resizable=1;rotatable=1;deletable=1;editable=1;locked=0;connectable=1;" vertex="1" parent="514ld6V3FWJP6KO72t_t-61">
          <mxGeometry width="90" height="20" as="geometry" />
        </mxCell>
        <mxCell id="514ld6V3FWJP6KO72t_t-64" value="" style="group;movable=1;resizable=1;rotatable=1;deletable=1;editable=1;locked=0;connectable=1;" vertex="1" connectable="0" parent="514ld6V3FWJP6KO72t_t-121">
          <mxGeometry x="50" y="280" width="90" height="20" as="geometry" />
        </mxCell>
        <mxCell id="514ld6V3FWJP6KO72t_t-65" value="" style="rounded=0;whiteSpace=wrap;html=1;movable=1;resizable=1;rotatable=1;deletable=1;editable=1;locked=0;connectable=1;" vertex="1" parent="514ld6V3FWJP6KO72t_t-64">
          <mxGeometry width="90" height="20" as="geometry" />
        </mxCell>
        <mxCell id="514ld6V3FWJP6KO72t_t-66" value="&lt;font style=&quot;font-size: 10px;&quot;&gt;skills&lt;/font&gt;" style="text;html=1;align=center;verticalAlign=middle;whiteSpace=wrap;rounded=0;movable=1;resizable=1;rotatable=1;deletable=1;editable=1;locked=0;connectable=1;" vertex="1" parent="514ld6V3FWJP6KO72t_t-64">
          <mxGeometry width="90" height="20" as="geometry" />
        </mxCell>
        <mxCell id="514ld6V3FWJP6KO72t_t-72" style="edgeStyle=orthogonalEdgeStyle;rounded=0;orthogonalLoop=1;jettySize=auto;html=1;exitX=0.25;exitY=1;exitDx=0;exitDy=0;entryX=0;entryY=0.75;entryDx=0;entryDy=0;strokeWidth=1;movable=1;resizable=1;rotatable=1;deletable=1;editable=1;locked=0;connectable=1;" edge="1" parent="514ld6V3FWJP6KO72t_t-121" source="514ld6V3FWJP6KO72t_t-15" target="514ld6V3FWJP6KO72t_t-38">
          <mxGeometry relative="1" as="geometry">
            <Array as="points">
              <mxPoint x="30" y="55" />
            </Array>
          </mxGeometry>
        </mxCell>
        <mxCell id="514ld6V3FWJP6KO72t_t-73" style="edgeStyle=orthogonalEdgeStyle;rounded=0;orthogonalLoop=1;jettySize=auto;html=1;exitX=0.25;exitY=1;exitDx=0;exitDy=0;entryX=0;entryY=0.75;entryDx=0;entryDy=0;strokeWidth=1;movable=1;resizable=1;rotatable=1;deletable=1;editable=1;locked=0;connectable=1;" edge="1" parent="514ld6V3FWJP6KO72t_t-121" source="514ld6V3FWJP6KO72t_t-15" target="514ld6V3FWJP6KO72t_t-45">
          <mxGeometry relative="1" as="geometry" />
        </mxCell>
        <mxCell id="514ld6V3FWJP6KO72t_t-74" style="edgeStyle=orthogonalEdgeStyle;rounded=0;orthogonalLoop=1;jettySize=auto;html=1;exitX=0.25;exitY=1;exitDx=0;exitDy=0;entryX=0;entryY=0.75;entryDx=0;entryDy=0;strokeWidth=1;movable=1;resizable=1;rotatable=1;deletable=1;editable=1;locked=0;connectable=1;" edge="1" parent="514ld6V3FWJP6KO72t_t-121" source="514ld6V3FWJP6KO72t_t-15" target="514ld6V3FWJP6KO72t_t-48">
          <mxGeometry relative="1" as="geometry" />
        </mxCell>
        <mxCell id="514ld6V3FWJP6KO72t_t-75" style="edgeStyle=orthogonalEdgeStyle;rounded=0;orthogonalLoop=1;jettySize=auto;html=1;exitX=0.25;exitY=1;exitDx=0;exitDy=0;entryX=0;entryY=0.75;entryDx=0;entryDy=0;strokeWidth=1;movable=1;resizable=1;rotatable=1;deletable=1;editable=1;locked=0;connectable=1;" edge="1" parent="514ld6V3FWJP6KO72t_t-121" source="514ld6V3FWJP6KO72t_t-15" target="514ld6V3FWJP6KO72t_t-51">
          <mxGeometry relative="1" as="geometry" />
        </mxCell>
        <mxCell id="514ld6V3FWJP6KO72t_t-76" style="edgeStyle=orthogonalEdgeStyle;rounded=0;orthogonalLoop=1;jettySize=auto;html=1;exitX=0.25;exitY=1;exitDx=0;exitDy=0;entryX=0;entryY=0.75;entryDx=0;entryDy=0;strokeWidth=1;movable=1;resizable=1;rotatable=1;deletable=1;editable=1;locked=0;connectable=1;" edge="1" parent="514ld6V3FWJP6KO72t_t-121" source="514ld6V3FWJP6KO72t_t-15" target="514ld6V3FWJP6KO72t_t-54">
          <mxGeometry relative="1" as="geometry" />
        </mxCell>
        <mxCell id="514ld6V3FWJP6KO72t_t-77" style="edgeStyle=orthogonalEdgeStyle;rounded=0;orthogonalLoop=1;jettySize=auto;html=1;exitX=0.25;exitY=1;exitDx=0;exitDy=0;entryX=0;entryY=0.75;entryDx=0;entryDy=0;strokeWidth=1;movable=1;resizable=1;rotatable=1;deletable=1;editable=1;locked=0;connectable=1;" edge="1" parent="514ld6V3FWJP6KO72t_t-121" source="514ld6V3FWJP6KO72t_t-15" target="514ld6V3FWJP6KO72t_t-63">
          <mxGeometry relative="1" as="geometry" />
        </mxCell>
        <mxCell id="514ld6V3FWJP6KO72t_t-78" style="edgeStyle=orthogonalEdgeStyle;rounded=0;orthogonalLoop=1;jettySize=auto;html=1;exitX=0.25;exitY=1;exitDx=0;exitDy=0;entryX=0;entryY=0.75;entryDx=0;entryDy=0;strokeWidth=1;movable=1;resizable=1;rotatable=1;deletable=1;editable=1;locked=0;connectable=1;" edge="1" parent="514ld6V3FWJP6KO72t_t-121" source="514ld6V3FWJP6KO72t_t-15" target="514ld6V3FWJP6KO72t_t-57">
          <mxGeometry relative="1" as="geometry" />
        </mxCell>
        <mxCell id="514ld6V3FWJP6KO72t_t-79" style="edgeStyle=orthogonalEdgeStyle;rounded=0;orthogonalLoop=1;jettySize=auto;html=1;exitX=0.25;exitY=1;exitDx=0;exitDy=0;entryX=0;entryY=0.75;entryDx=0;entryDy=0;strokeWidth=1;movable=1;resizable=1;rotatable=1;deletable=1;editable=1;locked=0;connectable=1;" edge="1" parent="514ld6V3FWJP6KO72t_t-121" source="514ld6V3FWJP6KO72t_t-15" target="514ld6V3FWJP6KO72t_t-60">
          <mxGeometry relative="1" as="geometry" />
        </mxCell>
        <mxCell id="514ld6V3FWJP6KO72t_t-80" style="edgeStyle=orthogonalEdgeStyle;rounded=0;orthogonalLoop=1;jettySize=auto;html=1;exitX=0.25;exitY=1;exitDx=0;exitDy=0;entryX=0;entryY=0.75;entryDx=0;entryDy=0;strokeWidth=1;movable=1;resizable=1;rotatable=1;deletable=1;editable=1;locked=0;connectable=1;" edge="1" parent="514ld6V3FWJP6KO72t_t-121" source="514ld6V3FWJP6KO72t_t-15" target="514ld6V3FWJP6KO72t_t-66">
          <mxGeometry relative="1" as="geometry" />
        </mxCell>
        <mxCell id="514ld6V3FWJP6KO72t_t-81" style="edgeStyle=orthogonalEdgeStyle;rounded=0;orthogonalLoop=1;jettySize=auto;html=1;exitX=0.25;exitY=1;exitDx=0;exitDy=0;entryX=0;entryY=0.75;entryDx=0;entryDy=0;strokeWidth=1;movable=1;resizable=1;rotatable=1;deletable=1;editable=1;locked=0;connectable=1;" edge="1" parent="514ld6V3FWJP6KO72t_t-122" source="514ld6V3FWJP6KO72t_t-15" target="514ld6V3FWJP6KO72t_t-70">
          <mxGeometry relative="1" as="geometry" />
        </mxCell>
        <mxCell id="514ld6V3FWJP6KO72t_t-123" value="" style="group;movable=1;resizable=1;rotatable=1;deletable=1;editable=1;locked=0;connectable=1;" vertex="1" connectable="0" parent="1">
          <mxGeometry x="640" y="200" width="140" height="210" as="geometry" />
        </mxCell>
        <mxCell id="514ld6V3FWJP6KO72t_t-84" value="" style="group;movable=1;resizable=1;rotatable=1;deletable=1;editable=1;locked=0;connectable=1;" vertex="1" connectable="0" parent="514ld6V3FWJP6KO72t_t-123">
          <mxGeometry width="120" height="30" as="geometry" />
        </mxCell>
        <mxCell id="514ld6V3FWJP6KO72t_t-85" value="" style="rounded=0;whiteSpace=wrap;html=1;movable=1;resizable=1;rotatable=1;deletable=1;editable=1;locked=0;connectable=1;" vertex="1" parent="514ld6V3FWJP6KO72t_t-84">
          <mxGeometry width="120" height="30" as="geometry" />
        </mxCell>
        <mxCell id="514ld6V3FWJP6KO72t_t-86" value="&lt;div&gt;posts&lt;/div&gt;" style="text;html=1;align=center;verticalAlign=middle;whiteSpace=wrap;rounded=0;movable=1;resizable=1;rotatable=1;deletable=1;editable=1;locked=0;connectable=1;" vertex="1" parent="514ld6V3FWJP6KO72t_t-84">
          <mxGeometry width="120" height="30" as="geometry" />
        </mxCell>
        <mxCell id="514ld6V3FWJP6KO72t_t-87" value="" style="group;movable=1;resizable=1;rotatable=1;deletable=1;editable=1;locked=0;connectable=1;" vertex="1" connectable="0" parent="514ld6V3FWJP6KO72t_t-123">
          <mxGeometry x="50" y="100" width="90" height="20" as="geometry" />
        </mxCell>
        <mxCell id="514ld6V3FWJP6KO72t_t-88" value="" style="rounded=0;whiteSpace=wrap;html=1;movable=1;resizable=1;rotatable=1;deletable=1;editable=1;locked=0;connectable=1;" vertex="1" parent="514ld6V3FWJP6KO72t_t-87">
          <mxGeometry width="90" height="20" as="geometry" />
        </mxCell>
        <mxCell id="514ld6V3FWJP6KO72t_t-89" value="&lt;font style=&quot;font-size: 10px;&quot;&gt;comments&lt;/font&gt;" style="text;html=1;align=center;verticalAlign=middle;whiteSpace=wrap;rounded=0;movable=1;resizable=1;rotatable=1;deletable=1;editable=1;locked=0;connectable=1;" vertex="1" parent="514ld6V3FWJP6KO72t_t-87">
          <mxGeometry width="90" height="20" as="geometry" />
        </mxCell>
        <mxCell id="514ld6V3FWJP6KO72t_t-90" value="" style="group;movable=1;resizable=1;rotatable=1;deletable=1;editable=1;locked=0;connectable=1;" vertex="1" connectable="0" parent="514ld6V3FWJP6KO72t_t-123">
          <mxGeometry x="50" y="130" width="90" height="20" as="geometry" />
        </mxCell>
        <mxCell id="514ld6V3FWJP6KO72t_t-91" value="" style="rounded=0;whiteSpace=wrap;html=1;movable=1;resizable=1;rotatable=1;deletable=1;editable=1;locked=0;connectable=1;" vertex="1" parent="514ld6V3FWJP6KO72t_t-90">
          <mxGeometry width="90" height="20" as="geometry" />
        </mxCell>
        <mxCell id="514ld6V3FWJP6KO72t_t-92" value="&lt;font style=&quot;font-size: 10px;&quot;&gt;reactions&lt;/font&gt;" style="text;html=1;align=center;verticalAlign=middle;whiteSpace=wrap;rounded=0;movable=1;resizable=1;rotatable=1;deletable=1;editable=1;locked=0;connectable=1;" vertex="1" parent="514ld6V3FWJP6KO72t_t-90">
          <mxGeometry width="90" height="20" as="geometry" />
        </mxCell>
        <mxCell id="514ld6V3FWJP6KO72t_t-93" value="" style="group;movable=1;resizable=1;rotatable=1;deletable=1;editable=1;locked=0;connectable=1;" vertex="1" connectable="0" parent="514ld6V3FWJP6KO72t_t-123">
          <mxGeometry x="50" y="160" width="90" height="20" as="geometry" />
        </mxCell>
        <mxCell id="514ld6V3FWJP6KO72t_t-94" value="" style="rounded=0;whiteSpace=wrap;html=1;movable=1;resizable=1;rotatable=1;deletable=1;editable=1;locked=0;connectable=1;" vertex="1" parent="514ld6V3FWJP6KO72t_t-93">
          <mxGeometry width="90" height="20" as="geometry" />
        </mxCell>
        <mxCell id="514ld6V3FWJP6KO72t_t-95" value="&lt;font style=&quot;font-size: 10px;&quot;&gt;shares&lt;/font&gt;" style="text;html=1;align=center;verticalAlign=middle;whiteSpace=wrap;rounded=0;movable=1;resizable=1;rotatable=1;deletable=1;editable=1;locked=0;connectable=1;" vertex="1" parent="514ld6V3FWJP6KO72t_t-93">
          <mxGeometry width="90" height="20" as="geometry" />
        </mxCell>
        <mxCell id="514ld6V3FWJP6KO72t_t-96" value="" style="group;movable=1;resizable=1;rotatable=1;deletable=1;editable=1;locked=0;connectable=1;" vertex="1" connectable="0" parent="514ld6V3FWJP6KO72t_t-123">
          <mxGeometry x="50" y="190" width="90" height="20" as="geometry" />
        </mxCell>
        <mxCell id="514ld6V3FWJP6KO72t_t-97" value="" style="rounded=0;whiteSpace=wrap;html=1;movable=1;resizable=1;rotatable=1;deletable=1;editable=1;locked=0;connectable=1;" vertex="1" parent="514ld6V3FWJP6KO72t_t-96">
          <mxGeometry width="90" height="20" as="geometry" />
        </mxCell>
        <mxCell id="514ld6V3FWJP6KO72t_t-98" value="&lt;font style=&quot;font-size: 10px;&quot;&gt;saves&lt;/font&gt;" style="text;html=1;align=center;verticalAlign=middle;whiteSpace=wrap;rounded=0;movable=1;resizable=1;rotatable=1;deletable=1;editable=1;locked=0;connectable=1;" vertex="1" parent="514ld6V3FWJP6KO72t_t-96">
          <mxGeometry width="90" height="20" as="geometry" />
        </mxCell>
        <mxCell id="514ld6V3FWJP6KO72t_t-100" style="edgeStyle=orthogonalEdgeStyle;rounded=0;orthogonalLoop=1;jettySize=auto;html=1;exitX=0.25;exitY=1;exitDx=0;exitDy=0;entryX=0;entryY=0.75;entryDx=0;entryDy=0;movable=1;resizable=1;rotatable=1;deletable=1;editable=1;locked=0;connectable=1;" edge="1" parent="514ld6V3FWJP6KO72t_t-123" source="514ld6V3FWJP6KO72t_t-86" target="514ld6V3FWJP6KO72t_t-89">
          <mxGeometry relative="1" as="geometry">
            <Array as="points">
              <mxPoint x="30" y="115" />
            </Array>
          </mxGeometry>
        </mxCell>
        <mxCell id="514ld6V3FWJP6KO72t_t-101" style="edgeStyle=orthogonalEdgeStyle;rounded=0;orthogonalLoop=1;jettySize=auto;html=1;exitX=0.25;exitY=1;exitDx=0;exitDy=0;entryX=0;entryY=0.75;entryDx=0;entryDy=0;movable=1;resizable=1;rotatable=1;deletable=1;editable=1;locked=0;connectable=1;" edge="1" parent="514ld6V3FWJP6KO72t_t-123" source="514ld6V3FWJP6KO72t_t-86" target="514ld6V3FWJP6KO72t_t-92">
          <mxGeometry relative="1" as="geometry" />
        </mxCell>
        <mxCell id="514ld6V3FWJP6KO72t_t-102" style="edgeStyle=orthogonalEdgeStyle;rounded=0;orthogonalLoop=1;jettySize=auto;html=1;exitX=0.25;exitY=1;exitDx=0;exitDy=0;entryX=0;entryY=0.75;entryDx=0;entryDy=0;movable=1;resizable=1;rotatable=1;deletable=1;editable=1;locked=0;connectable=1;" edge="1" parent="514ld6V3FWJP6KO72t_t-123" source="514ld6V3FWJP6KO72t_t-86" target="514ld6V3FWJP6KO72t_t-95">
          <mxGeometry relative="1" as="geometry" />
        </mxCell>
        <mxCell id="514ld6V3FWJP6KO72t_t-103" style="edgeStyle=orthogonalEdgeStyle;rounded=0;orthogonalLoop=1;jettySize=auto;html=1;exitX=0.25;exitY=1;exitDx=0;exitDy=0;entryX=0;entryY=0.75;entryDx=0;entryDy=0;movable=1;resizable=1;rotatable=1;deletable=1;editable=1;locked=0;connectable=1;" edge="1" parent="514ld6V3FWJP6KO72t_t-123" source="514ld6V3FWJP6KO72t_t-86" target="514ld6V3FWJP6KO72t_t-98">
          <mxGeometry relative="1" as="geometry" />
        </mxCell>
        <mxCell id="514ld6V3FWJP6KO72t_t-104" value="" style="group;movable=1;resizable=1;rotatable=1;deletable=1;editable=1;locked=0;connectable=1;" vertex="1" connectable="0" parent="514ld6V3FWJP6KO72t_t-123">
          <mxGeometry x="50" y="40" width="90" height="20" as="geometry" />
        </mxCell>
        <mxCell id="514ld6V3FWJP6KO72t_t-105" value="" style="rounded=0;whiteSpace=wrap;html=1;movable=1;resizable=1;rotatable=1;deletable=1;editable=1;locked=0;connectable=1;" vertex="1" parent="514ld6V3FWJP6KO72t_t-104">
          <mxGeometry width="90" height="20" as="geometry" />
        </mxCell>
        <mxCell id="514ld6V3FWJP6KO72t_t-106" value="&lt;font style=&quot;font-size: 10px;&quot;&gt;user&lt;/font&gt;" style="text;html=1;align=center;verticalAlign=middle;whiteSpace=wrap;rounded=0;movable=1;resizable=1;rotatable=1;deletable=1;editable=1;locked=0;connectable=1;" vertex="1" parent="514ld6V3FWJP6KO72t_t-104">
          <mxGeometry width="90" height="20" as="geometry" />
        </mxCell>
        <mxCell id="514ld6V3FWJP6KO72t_t-107" style="edgeStyle=orthogonalEdgeStyle;rounded=0;orthogonalLoop=1;jettySize=auto;html=1;exitX=0.25;exitY=1;exitDx=0;exitDy=0;entryX=0;entryY=0.75;entryDx=0;entryDy=0;movable=1;resizable=1;rotatable=1;deletable=1;editable=1;locked=0;connectable=1;" edge="1" parent="514ld6V3FWJP6KO72t_t-123" source="514ld6V3FWJP6KO72t_t-86" target="514ld6V3FWJP6KO72t_t-106">
          <mxGeometry relative="1" as="geometry">
            <Array as="points">
              <mxPoint x="30" y="55" />
            </Array>
          </mxGeometry>
        </mxCell>
        <mxCell id="514ld6V3FWJP6KO72t_t-108" value="" style="group;movable=1;resizable=1;rotatable=1;deletable=1;editable=1;locked=0;connectable=1;" vertex="1" connectable="0" parent="514ld6V3FWJP6KO72t_t-123">
          <mxGeometry x="50" y="70" width="90" height="20" as="geometry" />
        </mxCell>
        <mxCell id="514ld6V3FWJP6KO72t_t-109" value="" style="rounded=0;whiteSpace=wrap;html=1;movable=1;resizable=1;rotatable=1;deletable=1;editable=1;locked=0;connectable=1;" vertex="1" parent="514ld6V3FWJP6KO72t_t-108">
          <mxGeometry width="90" height="20" as="geometry" />
        </mxCell>
        <mxCell id="514ld6V3FWJP6KO72t_t-110" value="&lt;font style=&quot;font-size: 10px;&quot;&gt;content&lt;/font&gt;" style="text;html=1;align=center;verticalAlign=middle;whiteSpace=wrap;rounded=0;movable=1;resizable=1;rotatable=1;deletable=1;editable=1;locked=0;connectable=1;" vertex="1" parent="514ld6V3FWJP6KO72t_t-108">
          <mxGeometry width="90" height="20" as="geometry" />
        </mxCell>
        <mxCell id="514ld6V3FWJP6KO72t_t-111" style="edgeStyle=orthogonalEdgeStyle;rounded=0;orthogonalLoop=1;jettySize=auto;html=1;exitX=0.25;exitY=1;exitDx=0;exitDy=0;entryX=0;entryY=0.75;entryDx=0;entryDy=0;movable=1;resizable=1;rotatable=1;deletable=1;editable=1;locked=0;connectable=1;" edge="1" parent="514ld6V3FWJP6KO72t_t-123" source="514ld6V3FWJP6KO72t_t-86" target="514ld6V3FWJP6KO72t_t-110">
          <mxGeometry relative="1" as="geometry" />
        </mxCell>
        <mxCell id="514ld6V3FWJP6KO72t_t-147" style="edgeStyle=orthogonalEdgeStyle;rounded=0;orthogonalLoop=1;jettySize=auto;html=1;exitX=0.5;exitY=1;exitDx=0;exitDy=0;entryX=0.5;entryY=0;entryDx=0;entryDy=0;" edge="1" parent="1" source="514ld6V3FWJP6KO72t_t-127" target="514ld6V3FWJP6KO72t_t-139">
          <mxGeometry relative="1" as="geometry" />
        </mxCell>
        <mxCell id="514ld6V3FWJP6KO72t_t-164" style="edgeStyle=orthogonalEdgeStyle;rounded=0;orthogonalLoop=1;jettySize=auto;html=1;exitX=0.5;exitY=1;exitDx=0;exitDy=0;entryX=0.5;entryY=0;entryDx=0;entryDy=0;" edge="1" parent="1" source="514ld6V3FWJP6KO72t_t-127" target="514ld6V3FWJP6KO72t_t-163">
          <mxGeometry relative="1" as="geometry">
            <Array as="points">
              <mxPoint x="550" y="620" />
              <mxPoint x="390" y="620" />
            </Array>
          </mxGeometry>
        </mxCell>
        <mxCell id="514ld6V3FWJP6KO72t_t-172" style="edgeStyle=orthogonalEdgeStyle;rounded=0;orthogonalLoop=1;jettySize=auto;html=1;exitX=0.5;exitY=1;exitDx=0;exitDy=0;" edge="1" parent="1" source="514ld6V3FWJP6KO72t_t-127" target="514ld6V3FWJP6KO72t_t-171">
          <mxGeometry relative="1" as="geometry">
            <Array as="points">
              <mxPoint x="550" y="620" />
              <mxPoint x="790" y="620" />
            </Array>
          </mxGeometry>
        </mxCell>
        <mxCell id="514ld6V3FWJP6KO72t_t-127" value="" style="group;movable=1;resizable=1;rotatable=1;deletable=1;editable=1;locked=0;connectable=1;" vertex="1" connectable="0" parent="1">
          <mxGeometry x="490" y="570" width="120" height="40" as="geometry" />
        </mxCell>
        <mxCell id="514ld6V3FWJP6KO72t_t-128" value="" style="rounded=1;whiteSpace=wrap;html=1;" vertex="1" parent="514ld6V3FWJP6KO72t_t-127">
          <mxGeometry width="120" height="40" as="geometry" />
        </mxCell>
        <mxCell id="514ld6V3FWJP6KO72t_t-129" value="&lt;b&gt;backend&lt;/b&gt;" style="text;html=1;align=center;verticalAlign=middle;whiteSpace=wrap;rounded=0;" vertex="1" parent="514ld6V3FWJP6KO72t_t-127">
          <mxGeometry x="20" y="5" width="80" height="30" as="geometry" />
        </mxCell>
        <mxCell id="514ld6V3FWJP6KO72t_t-131" value="" style="group;movable=1;resizable=1;rotatable=1;deletable=1;editable=1;locked=0;connectable=1;" vertex="1" connectable="0" parent="1">
          <mxGeometry x="810" y="650" width="120" height="30" as="geometry" />
        </mxCell>
        <mxCell id="514ld6V3FWJP6KO72t_t-132" value="" style="rounded=0;whiteSpace=wrap;html=1;movable=1;resizable=1;rotatable=1;deletable=1;editable=1;locked=0;connectable=1;" vertex="1" parent="514ld6V3FWJP6KO72t_t-131">
          <mxGeometry width="120" height="30" as="geometry" />
        </mxCell>
        <mxCell id="514ld6V3FWJP6KO72t_t-133" value="user" style="text;html=1;align=center;verticalAlign=middle;whiteSpace=wrap;rounded=0;movable=1;resizable=1;rotatable=1;deletable=1;editable=1;locked=0;connectable=1;" vertex="1" parent="514ld6V3FWJP6KO72t_t-131">
          <mxGeometry width="120" height="30" as="geometry" />
        </mxCell>
        <mxCell id="514ld6V3FWJP6KO72t_t-134" value="" style="group;movable=1;resizable=1;rotatable=1;deletable=1;editable=1;locked=0;connectable=1;" vertex="1" connectable="0" parent="1">
          <mxGeometry x="650" y="650" width="120" height="45" as="geometry" />
        </mxCell>
        <mxCell id="514ld6V3FWJP6KO72t_t-135" value="" style="rounded=0;whiteSpace=wrap;html=1;movable=1;resizable=1;rotatable=1;deletable=1;editable=1;locked=0;connectable=1;" vertex="1" parent="514ld6V3FWJP6KO72t_t-134">
          <mxGeometry width="120" height="30" as="geometry" />
        </mxCell>
        <mxCell id="514ld6V3FWJP6KO72t_t-136" value="content" style="text;html=1;align=center;verticalAlign=middle;whiteSpace=wrap;rounded=0;movable=1;resizable=1;rotatable=1;deletable=1;editable=1;locked=0;connectable=1;" vertex="1" parent="514ld6V3FWJP6KO72t_t-134">
          <mxGeometry width="120" height="30" as="geometry" />
        </mxCell>
        <mxCell id="514ld6V3FWJP6KO72t_t-137" value="" style="group;movable=1;resizable=1;rotatable=1;deletable=1;editable=1;locked=0;connectable=1;" vertex="1" connectable="0" parent="1">
          <mxGeometry x="490" y="650" width="120" height="30" as="geometry" />
        </mxCell>
        <mxCell id="514ld6V3FWJP6KO72t_t-138" value="" style="rounded=0;whiteSpace=wrap;html=1;movable=1;resizable=1;rotatable=1;deletable=1;editable=1;locked=0;connectable=1;" vertex="1" parent="514ld6V3FWJP6KO72t_t-137">
          <mxGeometry width="120" height="30" as="geometry" />
        </mxCell>
        <mxCell id="514ld6V3FWJP6KO72t_t-139" value="connection" style="text;html=1;align=center;verticalAlign=middle;whiteSpace=wrap;rounded=0;movable=1;resizable=1;rotatable=1;deletable=1;editable=1;locked=0;connectable=1;" vertex="1" parent="514ld6V3FWJP6KO72t_t-137">
          <mxGeometry width="120" height="30" as="geometry" />
        </mxCell>
        <mxCell id="514ld6V3FWJP6KO72t_t-148" style="edgeStyle=orthogonalEdgeStyle;rounded=0;orthogonalLoop=1;jettySize=auto;html=1;exitX=0.5;exitY=1;exitDx=0;exitDy=0;entryX=0.52;entryY=0.005;entryDx=0;entryDy=0;entryPerimeter=0;" edge="1" parent="1" source="514ld6V3FWJP6KO72t_t-127" target="514ld6V3FWJP6KO72t_t-136">
          <mxGeometry relative="1" as="geometry">
            <Array as="points">
              <mxPoint x="550" y="620" />
              <mxPoint x="712" y="620" />
            </Array>
          </mxGeometry>
        </mxCell>
        <mxCell id="514ld6V3FWJP6KO72t_t-149" style="edgeStyle=orthogonalEdgeStyle;rounded=0;orthogonalLoop=1;jettySize=auto;html=1;exitX=0.5;exitY=1;exitDx=0;exitDy=0;" edge="1" parent="1" source="514ld6V3FWJP6KO72t_t-128" target="514ld6V3FWJP6KO72t_t-133">
          <mxGeometry relative="1" as="geometry">
            <Array as="points">
              <mxPoint x="550" y="620" />
              <mxPoint x="870" y="620" />
            </Array>
          </mxGeometry>
        </mxCell>
        <mxCell id="514ld6V3FWJP6KO72t_t-151" style="edgeStyle=orthogonalEdgeStyle;rounded=0;orthogonalLoop=1;jettySize=auto;html=1;exitX=0.5;exitY=1;exitDx=0;exitDy=0;" edge="1" parent="1" source="514ld6V3FWJP6KO72t_t-8" target="514ld6V3FWJP6KO72t_t-15">
          <mxGeometry relative="1" as="geometry">
            <Array as="points">
              <mxPoint x="550" y="180" />
              <mxPoint x="870" y="180" />
            </Array>
          </mxGeometry>
        </mxCell>
        <mxCell id="514ld6V3FWJP6KO72t_t-157" value="" style="group" vertex="1" connectable="0" parent="1">
          <mxGeometry x="80" y="170" width="120" height="30" as="geometry" />
        </mxCell>
        <mxCell id="514ld6V3FWJP6KO72t_t-155" value="" style="rounded=1;whiteSpace=wrap;html=1;" vertex="1" parent="514ld6V3FWJP6KO72t_t-157">
          <mxGeometry width="120" height="30" as="geometry" />
        </mxCell>
        <mxCell id="514ld6V3FWJP6KO72t_t-156" value="&lt;b&gt;views&lt;/b&gt;" style="text;html=1;align=center;verticalAlign=middle;whiteSpace=wrap;rounded=0;" vertex="1" parent="514ld6V3FWJP6KO72t_t-157">
          <mxGeometry y="5" width="120" height="20" as="geometry" />
        </mxCell>
        <mxCell id="514ld6V3FWJP6KO72t_t-158" value="" style="group" vertex="1" connectable="0" parent="1">
          <mxGeometry x="80" y="610" width="120" height="30" as="geometry" />
        </mxCell>
        <mxCell id="514ld6V3FWJP6KO72t_t-159" value="" style="rounded=1;whiteSpace=wrap;html=1;" vertex="1" parent="514ld6V3FWJP6KO72t_t-158">
          <mxGeometry width="120" height="30" as="geometry" />
        </mxCell>
        <mxCell id="514ld6V3FWJP6KO72t_t-160" value="&lt;b&gt;services&lt;/b&gt;" style="text;html=1;align=center;verticalAlign=middle;whiteSpace=wrap;rounded=0;" vertex="1" parent="514ld6V3FWJP6KO72t_t-158">
          <mxGeometry y="5" width="120" height="20" as="geometry" />
        </mxCell>
        <mxCell id="514ld6V3FWJP6KO72t_t-161" value="" style="group;movable=1;resizable=1;rotatable=1;deletable=1;editable=1;locked=0;connectable=1;" vertex="1" connectable="0" parent="1">
          <mxGeometry x="330" y="650" width="120" height="30" as="geometry" />
        </mxCell>
        <mxCell id="514ld6V3FWJP6KO72t_t-162" value="" style="rounded=0;whiteSpace=wrap;html=1;movable=1;resizable=1;rotatable=1;deletable=1;editable=1;locked=0;connectable=1;" vertex="1" parent="514ld6V3FWJP6KO72t_t-161">
          <mxGeometry width="120" height="30" as="geometry" />
        </mxCell>
        <mxCell id="514ld6V3FWJP6KO72t_t-163" value="analytics" style="text;html=1;align=center;verticalAlign=middle;whiteSpace=wrap;rounded=0;movable=1;resizable=1;rotatable=1;deletable=1;editable=1;locked=0;connectable=1;" vertex="1" parent="514ld6V3FWJP6KO72t_t-161">
          <mxGeometry width="120" height="30" as="geometry" />
        </mxCell>
        <mxCell id="514ld6V3FWJP6KO72t_t-165" value="" style="group;movable=1;resizable=1;rotatable=1;deletable=1;editable=1;locked=0;connectable=1;" vertex="1" connectable="0" parent="1">
          <mxGeometry x="170" y="650" width="120" height="30" as="geometry" />
        </mxCell>
        <mxCell id="514ld6V3FWJP6KO72t_t-166" value="" style="rounded=0;whiteSpace=wrap;html=1;movable=1;resizable=1;rotatable=1;deletable=1;editable=1;locked=0;connectable=1;" vertex="1" parent="514ld6V3FWJP6KO72t_t-165">
          <mxGeometry width="120" height="30" as="geometry" />
        </mxCell>
        <mxCell id="514ld6V3FWJP6KO72t_t-167" value="auth" style="text;html=1;align=center;verticalAlign=middle;whiteSpace=wrap;rounded=0;movable=1;resizable=1;rotatable=1;deletable=1;editable=1;locked=0;connectable=1;" vertex="1" parent="514ld6V3FWJP6KO72t_t-165">
          <mxGeometry width="120" height="30" as="geometry" />
        </mxCell>
        <mxCell id="514ld6V3FWJP6KO72t_t-168" style="edgeStyle=orthogonalEdgeStyle;rounded=0;orthogonalLoop=1;jettySize=auto;html=1;exitX=0.5;exitY=1;exitDx=0;exitDy=0;entryX=0.5;entryY=0;entryDx=0;entryDy=0;" edge="1" parent="1" source="514ld6V3FWJP6KO72t_t-128" target="514ld6V3FWJP6KO72t_t-167">
          <mxGeometry relative="1" as="geometry">
            <Array as="points">
              <mxPoint x="550" y="620" />
              <mxPoint x="230" y="620" />
            </Array>
          </mxGeometry>
        </mxCell>
        <mxCell id="514ld6V3FWJP6KO72t_t-169" value="" style="group;movable=1;resizable=1;rotatable=1;deletable=1;editable=1;locked=0;connectable=1;" vertex="1" connectable="0" parent="1">
          <mxGeometry x="730" y="700" width="120" height="30" as="geometry" />
        </mxCell>
        <mxCell id="514ld6V3FWJP6KO72t_t-170" value="" style="rounded=0;whiteSpace=wrap;html=1;movable=1;resizable=1;rotatable=1;deletable=1;editable=1;locked=0;connectable=1;" vertex="1" parent="514ld6V3FWJP6KO72t_t-169">
          <mxGeometry width="120" height="30" as="geometry" />
        </mxCell>
        <mxCell id="514ld6V3FWJP6KO72t_t-171" value="notification" style="text;html=1;align=center;verticalAlign=middle;whiteSpace=wrap;rounded=0;movable=1;resizable=1;rotatable=1;deletable=1;editable=1;locked=0;connectable=1;" vertex="1" parent="514ld6V3FWJP6KO72t_t-169">
          <mxGeometry width="120" height="30" as="geometry" />
        </mxCell>
      </root>
    </mxGraphModel>
  </diagram>
</mxfile>
